<?xml version="1.0" encoding="UTF-8"?>
<svg id="_Слой_2" data-name="Слой 2" xmlns="http://www.w3.org/2000/svg" viewBox="0 0 1654.15 232.61">
  <g id="_Слой_1-2" data-name="Слой 1">
    <g>
      <g>
        <path d="M901.1,17.02V215.59H17.02V17.02H901.1M918.12,0H0V232.61H918.12V0h0Z"/>
        <g id="Vector">
          <path d="M154.55,61.88H85.83v15.71h27.49v93.13h14.8V77.59h26.43v-15.71Z" style="fill-rule: evenodd;"/>
          <path d="M211.12,176.33c23.56,0,43.76-15.29,52.26-37.03h-19.06c-7.08,11.49-19.31,19.07-33.21,19.07-20.29,0-37.02-16.17-39.37-37.03h95.93v-7.29c0-.41-.03-.8-.09-1.19-1.68-31.56-26.32-56.6-56.48-56.6s-56.57,26.88-56.57,60.03,25.33,60.03,56.57,60.03Zm38.63-69.57c-4.07-18.64-19.82-32.54-38.63-32.54s-34.55,13.9-38.63,32.54h77.25Z" style="fill-rule: evenodd;"/>
          <path d="M278.26,170.72V61.88h14.8v42.64h62.38V61.88h14.8v108.84h-14.8v-50.49h-62.38v50.49h-14.8Z" style="fill-rule: evenodd;"/>
          <path d="M383.99,170.72V61.88h42.29l8.14,93.13h13V61.88h15.86v108.84h-43.35l-8.14-93.13h-11.95v93.13h-15.86Z" style="fill-rule: evenodd;"/>
          <path d="M551.9,116.3l77.38-35.34v-20.2l-82.47,37.67V61.88h-15.86v108.84h15.86v-36.54l82.47,37.67v-20.2l-77.38-35.34Z" style="fill-rule: evenodd;"/>
          <path d="M643.03,170.72V61.88h15.86v93.13h37V61.88h15.86v108.84h-68.72Z" style="fill-rule: evenodd;"/>
          <path d="M725.5,170.72V61.88h39.12l9.95,93.13h9.7l9.95-93.13h38.06v108.84h-15.86V75.35h-7.78l-10.19,95.37h-38.06l-10.19-95.37h-8.84v95.37h-15.86Z" style="fill-rule: evenodd;"/>
          <path d="M489.72,155.01V77.59h-14.8v-15.71h43.35v15.71h-13.75v77.42h13.75v15.71h-43.35v-15.71h14.8Z" style="fill-rule: evenodd;"/>
        </g>
      </g>
      <path d="M918.12,0V232.61h736.03V0H918.12Zm171.32,102.84h-22.84v-22.84h-56.83v72.61h56.83v-22.84h22.84v22.84h-22.84v22.84h-57.1v-22.84h-22.57V80h22.57v-22.84h57.1v22.84h22.84v22.84Zm116.21,49.77h-22.84v22.84h-57.1v-22.84h-22.57V80h22.57v-22.84h57.1v22.84h22.84v72.61Zm93.35-72.6h-56.81v72.57h56.81v22.84h-79.65V57.17h79.65v22.84Zm22.86,72.6h-22.84V80h22.84v72.61Zm36.53,22.84h-22.84V57.16h22.84v118.29Zm110.76,0h-22.84v-43.75h-17.13v-17.13h-17.13v-17.13h-17.13v78.01h-22.84V57.16h22.84v23.15h17.13v17.13h17.13v17.13h17.13V57.16h22.84v118.29Zm93.37,0h-57.1v-22.84h-22.57V80h22.57v-22.84h57.1v22.84h-56.83v72.61h56.83v22.84Zm22.82-22.87h-22.84v-32.32h-39.23v-22.84h62.07v55.16Zm-459.36-72.58v72.61h56.83V80h-56.83Z" style="fill-rule: evenodd;"/>
    </g>
  </g>
</svg>